<svg xmlns="http://www.w3.org/2000/svg"
     viewBox="0 0 24 24"
     fill="none"
     stroke="#777"
     stroke-width="2"
     stroke-linecap="round"
     stroke-linejoin="round">
  <!-- outer gear -->
  <path d="M21 13.5v-3l-2-.5a7 7 0 0 0-.6-1.4l1.2-1.6-2.1-2.1-1.6 1.2a7 7 0 0 0-1.4-.6l-.5-2h-3l-.5 2a7 7 0 0 0-1.4.6l-1.6-1.2-2.1 2.1 1.2 1.6a7 7 0 0 0-.6 1.4l-2 .5v3l2 .5c.13.49.31.96.55 1.4l-1.23 1.6 2.12 2.12 1.6-1.23c.44.24.9.42 1.4.55l.5 2h3l.5-2c.49-.13.96-.31 1.4-.55l1.6 1.23 2.12-2.12-1.23-1.6c.24-.44.42-.9.55-1.4l2-.5z"/>
  <!-- inner circle -->
  <circle cx="12" cy="12" r="3"/>
</svg>
